<svg xmlns="http://www.w3.org/2000/svg" width="20" height="20" fill="none" viewBox="0 0 20 20"><path fill="#212529" d="m8.197 16.148-.169-.286c-1.263-2.152-4.622-6.723-4.656-6.77l-.099-.133L4.537 7.71l3.617 2.526c2.267-2.93 4.378-4.946 5.76-6.128 1.526-1.305 2.492-1.89 2.532-1.913l.046-.028h2.227l-.377.336c-4.763 4.242-9.93 13.266-9.98 13.357zM8.197 4.598a.306.306 0 1 0 0-.611.306.306 0 0 0 0 .611M8.197 17.833a.306.306 0 1 0 0-.612.306.306 0 0 0 0 .611M1.587 11.215a.306.306 0 1 0 0-.612.306.306 0 0 0 0 .612M14.806 11.215a.306.306 0 1 0 0-.611.306.306 0 0 0 0 .611M3.517 15.895a.306.306 0 1 0 0-.612.306.306 0 0 0 0 .612M3.52 6.542a.306.306 0 1 0 0-.612.306.306 0 0 0 0 .612M12.872 15.89a.306.306 0 1 0 0-.612.306.306 0 0 0 0 .611M2.466 7.907a.306.306 0 1 0 0-.612.306.306 0 0 0 0 .612M13.927 14.524a.306.306 0 1 0 0-.612.306.306 0 0 0 0 .612M4.892 16.94a.306.306 0 1 0 0-.612.306.306 0 0 0 0 .612M6.486 4.824a.306.306 0 1 0 0-.612.306.306 0 0 0 0 .612M9.907 17.607a.306.306 0 1 0 0-.612.306.306 0 0 0 0 .612M1.81 12.926a.306.306 0 1 0 0-.612.306.306 0 0 0 0 .612M14.58 9.505a.306.306 0 1 0 0-.612.306.306 0 0 0 0 .612M2.466 14.524a.306.306 0 1 0 0-.612.306.306 0 0 0 0 .612M11.501 16.94a.306.306 0 1 0 0-.612.306.306 0 0 0 0 .612M4.892 5.491a.306.306 0 1 0 0-.612.306.306 0 0 0 0 .612M9.907 4.824a.306.306 0 1 0 0-.612.306.306 0 0 0 0 .612M6.486 17.607a.306.306 0 1 0 0-.612.306.306 0 0 0 0 .612M14.58 12.926a.306.306 0 1 0 0-.612.306.306 0 0 0 0 .612M1.81 9.505a.306.306 0 1 0 0-.612.306.306 0 0 0 0 .612"/></svg>