<svg xmlns="http://www.w3.org/2000/svg" width="20" height="20" fill="none" viewBox="0 0 20 20"><path fill="#006064" d="m8.197 16.149-.169-.287C6.765 13.71 3.406 9.139 3.372 9.093l-.099-.134 1.264-1.248 3.617 2.525c2.267-2.93 4.378-4.946 5.76-6.127 1.526-1.306 2.492-1.89 2.532-1.914l.046-.028h2.227l-.377.336c-4.763 4.242-9.93 13.266-9.98 13.357zM8.197 4.598a.306.306 0 1 0 0-.612.306.306 0 0 0 0 .612M8.197 17.833a.306.306 0 1 0 0-.612.306.306 0 0 0 0 .611M1.587 11.216a.306.306 0 1 0 0-.612.306.306 0 0 0 0 .612M14.806 11.216a.306.306 0 1 0 0-.612.306.306 0 0 0 0 .612M3.517 15.894a.306.306 0 1 0 0-.611.306.306 0 0 0 0 .611M3.525 6.541a.306.306 0 1 0 0-.611.306.306 0 0 0 0 .611M12.868 15.89a.306.306 0 1 0 0-.612.306.306 0 0 0 0 .611M2.47 7.907a.306.306 0 1 0 0-.612.306.306 0 0 0 0 .612M13.93 14.524a.306.306 0 1 0 0-.612.306.306 0 0 0 0 .612M4.892 16.94a.306.306 0 1 0 0-.612.306.306 0 0 0 0 .612M6.486 4.824a.306.306 0 1 0 0-.612.306.306 0 0 0 0 .612M9.907 17.607a.306.306 0 1 0 0-.612.306.306 0 0 0 0 .612M1.814 12.926a.306.306 0 1 0 0-.612.306.306 0 0 0 0 .612M14.58 9.505a.306.306 0 1 0 0-.612.306.306 0 0 0 0 .612M2.47 14.524a.306.306 0 1 0 0-.612.306.306 0 0 0 0 .612M11.501 16.94a.306.306 0 1 0 0-.612.306.306 0 0 0 0 .612M4.892 5.491a.306.306 0 1 0 0-.612.306.306 0 0 0 0 .612M9.907 4.824a.306.306 0 1 0 0-.612.306.306 0 0 0 0 .612M6.486 17.607a.306.306 0 1 0 0-.612.306.306 0 0 0 0 .612M14.58 12.926a.306.306 0 1 0 0-.612.306.306 0 0 0 0 .612M1.814 9.505a.306.306 0 1 0 0-.612.306.306 0 0 0 0 .612"/></svg>